<?xml version="1.0" ?><svg height="512" id="Layer_1" version="1.1" viewBox="0 0 512 512" width="512" xml:space="preserve" xmlns="http://www.w3.org/2000/svg" xmlns:cc="http://creativecommons.org/ns#" xmlns:dc="http://purl.org/dc/elements/1.1/" xmlns:inkscape="http://www.inkscape.org/namespaces/inkscape" xmlns:rdf="http://www.w3.org/1999/02/22-rdf-syntax-ns#" xmlns:sodipodi="http://sodipodi.sourceforge.net/DTD/sodipodi-0.dtd" xmlns:svg="http://www.w3.org/2000/svg"><defs id="defs12"/><g id="g3354"><rect height="512" id="rect2987" rx="64" ry="64" style="fill:#282828;fill-opacity:1;fill-rule:nonzero;stroke:none" width="512" x="0" y="0"/><path d="m 55.999931,164.11006 c 10.8179,-1.90224 25.475851,-3.32893 45.164959,-3.32893 21.62247,0 37.24043,4.51561 47.56944,13.05793 9.609,7.84009 15.85796,20.41801 15.85796,35.36485 0,15.19128 -4.80895,27.53365 -13.69794,36.08041 -12.00458,11.6268 -30.27146,17.3202 -51.173918,17.3202 -5.52006,0 -10.329,-0.23556 -14.40905,-1.18224 v 60.5207 H 55.999931 V 164.11006 z m 29.315891,74.28529 c 3.84449,1.19557 8.40454,1.42224 14.40906,1.42224 22.102468,0 35.564848,-10.91568 35.564848,-29.427 0,-17.8002 -12.50237,-27.05809 -32.91593,-27.05809 -8.168988,0 -13.933498,0.71112 -17.057978,1.42224 v 53.64061 z m 88.889908,83.55207 V 206.35499 h 29.54701 v 115.59243 h -29.54701 z m 49.48501,-81.17426 c 0,-13.29349 -0.48445,-24.44473 -0.96445,-34.41817 h 25.70251 l 1.44002,17.32464 h 0.7289 c 5.28006,-9.01344 18.01354,-19.93801 37.47598,-19.93801 20.41801,0 41.56937,13.05793 41.56937,49.60946 v 68.59634 h -29.55145 v -65.27186 c 0,-16.61352 -6.24896,-29.19589 -22.34248,-29.19589 -11.76903,0 -19.93801,8.31121 -23.06249,17.09353 -0.96445,2.37336 -1.44001,5.9334 -1.44001,9.25789 v 68.11633 h -29.5559 v -81.17426 z m 231.34487,64.32518 c 0,24.20917 -5.0445,41.53825 -17.29353,52.44949 -12.00458,10.68457 -29.05811,14.00905 -45.16496,14.00905 -14.88906,0 -30.74702,-3.32448 -40.83602,-9.25344 l 6.48451,-22.07581 c 7.44898,4.27116 19.92912,8.77788 34.11595,8.77788 19.218,0 33.63594,-9.97345 33.63594,-34.88929 v -9.97345 h -0.48445 c -6.72896,10.20901 -18.50688,17.09353 -34.11594,17.09353 -29.07145,0 -49.72946,-23.7336 -49.72946,-56.49398 0,-37.97377 24.98251,-61.0007 53.08949,-61.0007 18.01354,0 28.35144,8.55121 33.88039,18.04465 h 0.46667 l 1.21335,-15.43128 h 25.70252 c -0.47556,7.8312 -0.97335,17.32464 -0.97335,33.23593 v 65.50742 z M 425.4975,252.63996 c 0,-2.84892 -0.23556,-5.46228 -0.95557,-7.8312 -3.13337,-10.68457 -11.53791,-18.75577 -24.03583,-18.75577 -16.57797,0 -28.827,14.24461 -28.827,37.73821 0,19.698 10.08901,35.6093 28.59589,35.6093 11.04012,0 20.65801,-7.12897 24.01805,-17.80465 0.97334,-2.84892 1.20446,-6.88452 1.20446,-10.20901 V 252.63996 z M 189.11701,140.44312 c -14.6535,0 -26.52919,11.73791 -26.52919,26.20475 0,14.46683 11.87569,26.20474 26.52919,26.20474 14.64461,0 26.52031,-11.73791 26.52031,-26.20474 0,-14.46684 -11.8757,-26.20475 -26.52031,-26.20475 z m 0,47.16943 c -11.72013,0 -21.22246,-9.38677 -21.22246,-20.96468 0,-11.57791 9.50677,-20.96469 21.22246,-20.96469 11.71125,0 21.21358,9.38233 21.21358,20.96469 0.004,11.57791 -9.50233,20.96468 -21.21358,20.96468 z m 9.71567,-13.93794 c 0.16445,2.22225 -1.52891,4.25339 -3.78671,4.53783 -2.26669,0.27112 -4.23561,-1.31112 -4.40894,-3.54226 -0.17334,-2.22225 1.52891,-4.25783 3.78671,-4.53339 0.72001,-0.0889 1.40446,0.009 2.01336,0.25779 v -10.9468 l -10.60901,1.94669 v 13.67127 h -0.0178 c 0.009,0.0445 0.0178,0.08 0.0178,0.11111 0.16444,2.23114 -1.52891,4.25783 -3.7956,4.53783 -2.25781,0.27556 -4.22672,-1.30668 -4.40005,-3.53337 -0.17334,-2.22669 1.52001,-4.25783 3.78671,-4.53783 0.71112,-0.0889 1.39557,0.0178 2.00446,0.26667 v -15.76463 -0.004 l 15.40018,-2.59559 0.009,-0.009 0,0 h 0.009 l -0.009,0.0711 v 19.94689 h -0.0178 c 0.009,0.04 0.009,0.0756 0.0178,0.12 z" id="Ping" style="fill:#ffffff;fill-opacity:1"/></g></svg>